<svg xmlns="http://www.w3.org/2000/svg" viewBox="0 0 30 30"><defs><style>.cls-1{fill:#f9f9f9;}.cls-2{fill:#bcbcbc;}</style></defs><title>pause_normal</title><g id="레이어_2" data-name="레이어 2"><g id="레이어_1-2" data-name="레이어 1"><rect class="cls-1" x="0.25" y="0.25" width="29.5" height="29.5" rx="4.75"/><path class="cls-2" d="M25,.5A4.51,4.51,0,0,1,29.5,5V25A4.51,4.51,0,0,1,25,29.5H5A4.51,4.51,0,0,1,.5,25V5A4.51,4.51,0,0,1,5,.5H25M25,0H5A5,5,0,0,0,0,5V25a5,5,0,0,0,5,5H25a5,5,0,0,0,5-5V5a5,5,0,0,0-5-5Z"/><rect class="cls-2" x="10.5" y="9.5" width="3" height="11" rx="0.5"/><rect class="cls-2" x="16.5" y="9.5" width="3" height="11" rx="0.5"/></g></g></svg>