<svg xmlns="http://www.w3.org/2000/svg" viewBox="0 0 30 30"><defs><style>.cls-1{fill:#bcbcbc;}.cls-2{fill:#fcfcfc;}</style></defs><title>play_hover</title><g id="레이어_2" data-name="레이어 2"><g id="레이어_1-2" data-name="레이어 1"><rect class="cls-1" x="0.25" y="0.25" width="29.5" height="29.5" rx="4.75"/><path class="cls-1" d="M25,.5A4.51,4.51,0,0,1,29.5,5V25A4.51,4.51,0,0,1,25,29.5H5A4.51,4.51,0,0,1,.5,25V5A4.51,4.51,0,0,1,5,.5H25M25,0H5A5,5,0,0,0,0,5V25a5,5,0,0,0,5,5H25a5,5,0,0,0,5-5V5a5,5,0,0,0-5-5Z"/><polygon class="cls-2" points="21 15.38 11 9.6 11 21.15 21 15.38"/></g></g></svg>