<svg xmlns="http://www.w3.org/2000/svg" viewBox="0 0 30 30"><defs><style>.cls-1{fill:#f9f9f9;}.cls-2{fill:#d3d3d3;}.cls-3{fill:#fff;}</style></defs><title>unlock</title><g id="레이어_2" data-name="레이어 2"><g id="레이어_1-2" data-name="레이어 1"><rect class="cls-1" x="0.25" y="0.25" width="29.5" height="29.5" rx="4.75"/><path class="cls-2" d="M25,.5A4.51,4.51,0,0,1,29.5,5V25A4.51,4.51,0,0,1,25,29.5H5A4.51,4.51,0,0,1,.5,25V5A4.51,4.51,0,0,1,5,.5H25M25,0H5A5,5,0,0,0,0,5V25a5,5,0,0,0,5,5H25a5,5,0,0,0,5-5V5a5,5,0,0,0-5-5Z"/><rect class="cls-3" x="8" y="13.01" width="14" height="11" rx="2"/><path class="cls-2" d="M20,12.51H12.5V10a3.5,3.5,0,0,0-7,0v2.17a.5.5,0,0,0,1,0V10a2.5,2.5,0,0,1,5,0v2.53H10A2.5,2.5,0,0,0,7.5,15v7a2.5,2.5,0,0,0,2.5,2.5H20A2.5,2.5,0,0,0,22.5,22V15A2.5,2.5,0,0,0,20,12.51ZM21.5,22a1.5,1.5,0,0,1-1.5,1.5H10A1.5,1.5,0,0,1,8.5,22V15a1.5,1.5,0,0,1,1.5-1.5H20A1.5,1.5,0,0,1,21.5,15Z"/><path class="cls-2" d="M15.69,18.07V16.29a.69.69,0,0,0-1.38,0v1.78A2,2,0,0,0,13,19.91a2,2,0,0,0,4,0A2,2,0,0,0,15.69,18.07Z"/></g></g></svg>